<?xml version="1.0" encoding="UTF-8" standalone="no"?>
<svg
   xmlns:dc="http://purl.org/dc/elements/1.1/"
   xmlns:cc="http://creativecommons.org/ns#"
   xmlns:rdf="http://www.w3.org/1999/02/22-rdf-syntax-ns#"
   xmlns:svg="http://www.w3.org/2000/svg"
   xmlns="http://www.w3.org/2000/svg"
   xmlns:sodipodi="http://sodipodi.sourceforge.net/DTD/sodipodi-0.dtd"
   xmlns:inkscape="http://www.inkscape.org/namespaces/inkscape"
   width="97.795799mm"
   height="22.599459mm"
   viewBox="0 0 97.795797 22.599459"
   version="1.1"
   id="svg8"
   inkscape:version="1.0.1 (c497b03c, 2020-09-10)"
   sodipodi:docname="logo-dark.svg">
  <defs
     id="defs2">
    <rect
       x="70.047226"
       y="101.08922"
       width="66.625153"
       height="29.091463"
       id="rect854" />
  </defs>
  <sodipodi:namedview
     id="base"
     pagecolor="#ffffff"
     bordercolor="#666666"
     borderopacity="1.0"
     inkscape:pageopacity="0.0"
     inkscape:pageshadow="2"
     inkscape:zoom="2.3191941"
     inkscape:cx="207.66256"
     inkscape:cy="41.457565"
     inkscape:document-units="mm"
     inkscape:current-layer="layer1"
     inkscape:document-rotation="0"
     showgrid="false"
     inkscape:window-width="1680"
     inkscape:window-height="1022"
     inkscape:window-x="0"
     inkscape:window-y="0"
     inkscape:window-maximized="0" />
  <metadata
     id="metadata5">
    <rdf:RDF>
      <cc:Work
         rdf:about="">
        <dc:format>image/svg+xml</dc:format>
        <dc:type
           rdf:resource="http://purl.org/dc/dcmitype/StillImage" />
        <dc:title></dc:title>
      </cc:Work>
    </rdf:RDF>
  </metadata>
  <g
     inkscape:label="Layer 1"
     inkscape:groupmode="layer"
     id="layer1"
     transform="translate(6.6173371,-72.568179)">
    <text
       xml:space="preserve"
       style="font-style:normal;font-weight:normal;font-size:18.8586px;line-height:1.25;font-family:sans-serif;fill:#000000;fill-opacity:1;stroke:none;stroke-width:0.282878"
       x="31.256195"
       y="83.867905"
       id="text851"><tspan
         sodipodi:role="line"
         id="tspan849"
         x="31.256195"
         y="83.867905"
         style="font-style:normal;font-variant:normal;font-weight:bold;font-stretch:normal;font-size:18.8586px;font-family:Oxanium;-inkscape-font-specification:'Oxanium Bold';stroke-width:0.282878">  </tspan></text>
    <g
       style="fill:#d7342a;fill-opacity:1"
       id="g847"
       transform="matrix(0.53564813,0,0,0.53840832,-8.7594578,66.634941)">
      <path
         d="m 30.090027,11.049988 c 0.08997,1.210022 0.359985,3.25 1.099976,5.169983 1.520019,-1.619995 2.880004,-3.089966 3.849975,-4.140015 C 33.190002,11.399963 31.25,11.149963 30.090027,11.049988 Z M 7.4400024,14.779968 C 2.3499755,22.149963 6.0499878,29.51001 7.4099731,31.73999 7.6199951,31.630005 7.830017,31.519959 8.0599975,31.419983 9.0499878,31 10.130005,30.630005 11.280029,30.25 12.349976,29.880005 13.48999,29.5 14.73999,29.01001 13.099976,26.98999 8.25,20.599976 7.4400024,14.779968 Z M 59.25,12.25 C 58.609985,11.469971 57.669983,11.019959 56.659973,11.019959 H 39.229981 c -0.389954,0 -0.75,0.190002 -0.979981,0.510009 -0.02002,0.03003 -0.03998,0.06 -0.07001,0.09003 0,0 -0.26001,0.299988 -0.729981,0.799988 -1.020019,1.119995 -3.280029,3.580017 -5.820007,6.270019 -2.440003,2.570008 -4.419983,4.599976 -5.890015,6.029969 -0.270019,0.260009 -0.659973,0.350036 -1.020019,0.230041 l -4.269959,-1.430053 v 4.490051 c 0,0.369995 -0.210022,0.719971 -0.549988,0.889953 -3.220031,1.630005 -5.860046,2.52002 -7.980041,3.240052 -1.159973,0.389953 -2.1599731,0.72998 -3.0799561,1.119995 -2.0700073,0.880005 -3.6200562,2.630005 -4.3600464,4.919983 -0.8800049,2.700012 -0.539978,5.779968 0.9200439,8.23999 l 0.9299927,1.570007 c 2.1300049,-0.160034 6.0799559,-1.97998 6.8099979,-3.440002 0.25,-0.48999 0.849975,-0.690003 1.339965,-0.440003 0.5,0.239991 0.700013,0.840027 0.450013,1.340027 -0.989991,1.979981 -4.649964,3.769959 -7.3200076,4.349976 C 10.559998,53.109985 15.429993,54 19.450012,51.75 l 11.909973,-6.840027 c 1.450013,-0.830017 3.25,-0.929993 4.799988,-0.26001 l 7.730042,3.390015 c 2.130005,0.950012 4.519958,0.890015 6.570007,-0.159973 2.049988,-1.059998 3.48999,-2.960022 3.940002,-5.230042 L 59.929993,15.01001 C 60.130005,14.029968 59.880005,13.019959 59.25,12.25 Z M 33.030029,28 c -0.550048,0 -1,-0.450012 -1,-1 0,-0.549988 0.449952,-1 1,-1 0.559998,0 1,0.450012 1,1 0,0.549988 -0.440002,1 -1,1 z M 46.409973,24.709961 C 46.210022,24.899963 45.960022,25 45.700012,25 c -0.26001,0 -0.51001,-0.100037 -0.710022,-0.290039 -0.390014,-0.389954 -0.390014,-1.019959 0,-1.419983 2.26001,-2.25 2.840027,-6.320007 2.98999,-8.229981 -1.919982,0.149964 -5.98999,0.729981 -8.23999,2.979981 -0.390014,0.390015 -1.020019,0.390015 -1.409973,0 -0.390015,-0.390015 -0.390015,-1.02002 0,-1.409973 C 41.909973,13.039978 48.73999,13 49.030029,13 c 0.559998,0 1,0.450012 1,1 0,0.289978 -0.04004,7.119995 -3.620056,10.709961 z"
         id="path833"
         style="fill:#d7342a;fill-opacity:1" />
    </g>
    <g
       aria-label="RYNO"
       id="text860"
       style="font-style:normal;font-weight:normal;font-size:24.6944px;line-height:1.25;font-family:sans-serif;fill:#000000;fill-opacity:1;stroke:none;stroke-width:0.264583">
      <path
         d="m 40.547703,76.711599 q 2.544199,0 3.906732,1.121377 1.362533,1.121377 1.362533,3.25561 0,2.785354 -2.990338,3.508823 0.651122,0.253214 1.036972,0.747584 0.253214,0.325561 0.458197,0.687296 0.21704,0.349676 0.49437,0.892278 0.289388,0.578775 0.446139,0.831989 0.241156,0.397908 0.482313,0.602891 0.241156,0.192925 0.542601,0.192925 h 0.229099 q 0.289387,0 0.446139,0.10852 0.156751,0.09646 0.229098,0.361734 0.0844,0.265272 0.0844,0.7717 0,0.506429 -0.0844,0.7717 -0.07235,0.265272 -0.229098,0.361735 -0.156752,0.09646 -0.446139,0.09646 h -1.169608 q -0.952567,0 -1.5434,-0.38585 -0.590833,-0.38585 -1.085203,-1.290186 -0.241157,-0.422023 -0.578775,-1.15755 -0.241157,-0.554659 -0.458197,-0.952567 -0.217041,-0.409966 -0.482313,-0.795816 -0.373792,-0.518486 -0.831989,-0.747584 -0.458197,-0.229098 -1.097261,-0.229098 h -0.7717 v 3.0868 h 1.169608 q 0.289388,0 0.446139,0.10852 0.156752,0.09646 0.229099,0.361734 0.0844,0.265272 0.0844,0.7717 0,0.506429 -0.0844,0.7717 -0.07235,0.265272 -0.229099,0.361735 -0.156751,0.09646 -0.446139,0.09646 h -5.474247 q -0.289388,0 -0.446139,-0.09646 -0.156752,-0.09646 -0.241156,-0.361735 -0.07235,-0.265271 -0.07235,-0.7717 0,-0.506428 0.07235,-0.7717 0.0844,-0.265271 0.241156,-0.361734 0.156751,-0.10852 0.446139,-0.10852 h 1.290186 v -9.368921 h -1.290186 q -0.289388,0 -0.446139,-0.09646 -0.156752,-0.09646 -0.241156,-0.361735 -0.07235,-0.265272 -0.07235,-0.7717 0,-0.506428 0.07235,-0.7717 0.0844,-0.265272 0.241156,-0.361734 0.156751,-0.108521 0.446139,-0.108521 z m -2.049828,6.161543 h 1.796614 q 1.229897,0 1.82073,-0.434081 0.590833,-0.44614 0.590833,-1.350475 0,-0.904336 -0.590833,-1.338418 -0.590833,-0.446139 -1.82073,-0.446139 h -1.796614 z"
         style="font-style:normal;font-variant:normal;font-weight:bold;font-stretch:normal;font-size:24.6944px;font-family:'Courier Prime';-inkscape-font-specification:'Courier Prime Bold';fill:#151515;fill-opacity:1;stroke-width:0.264583"
         id="path991" />
      <path
         d="m 61.082159,76.711599 q 0.289387,0 0.446139,0.108521 0.156752,0.09646 0.229098,0.361734 0.0844,0.265272 0.0844,0.7717 0,0.506428 -0.0844,0.7717 -0.07235,0.265272 -0.229098,0.361735 -0.156752,0.09646 -0.446139,0.09646 h -0.530544 l -4.123772,6.306236 v 3.062685 h 2.363331 q 0.289388,0 0.44614,0.10852 0.156751,0.09646 0.229098,0.361734 0.08441,0.265272 0.08441,0.7717 0,0.506429 -0.08441,0.7717 -0.07235,0.265272 -0.229098,0.361735 -0.156752,0.09646 -0.44614,0.09646 h -7.741115 q -0.289388,0 -0.446139,-0.09646 -0.156752,-0.09646 -0.241157,-0.361735 -0.07235,-0.265271 -0.07235,-0.7717 0,-0.506428 0.07235,-0.7717 0.0844,-0.265271 0.241157,-0.361734 0.156751,-0.10852 0.446139,-0.10852 h 2.363331 v -3.074743 l -4.099656,-6.294178 h -0.55466 q -0.289387,0 -0.446139,-0.09646 -0.156752,-0.09646 -0.241156,-0.361735 -0.07235,-0.265272 -0.07235,-0.7717 0,-0.506428 0.07235,-0.7717 0.0844,-0.265272 0.241156,-0.361734 0.156752,-0.108521 0.446139,-0.108521 h 4.750778 q 0.289388,0 0.446139,0.108521 0.156752,0.09646 0.229099,0.361734 0.0844,0.265272 0.0844,0.7717 0,0.506428 -0.0844,0.7717 -0.07235,0.265272 -0.229099,0.361735 -0.156751,0.09646 -0.446139,0.09646 h -0.807873 l 2.242753,3.520881 2.266869,-3.520881 h -0.639064 q -0.289388,0 -0.446139,-0.09646 -0.156752,-0.09646 -0.241156,-0.361735 -0.07235,-0.265272 -0.07235,-0.7717 0,-0.506428 0.07235,-0.7717 0.0844,-0.265272 0.241156,-0.361734 0.156751,-0.108521 0.446139,-0.108521 z"
         style="font-style:normal;font-variant:normal;font-weight:bold;font-stretch:normal;font-size:24.6944px;font-family:'Courier Prime';-inkscape-font-specification:'Courier Prime Bold';fill:#151515;fill-opacity:1;stroke-width:0.264583"
         id="path993" />
      <path
         d="m 76.009731,76.711599 q 0.289388,0 0.44614,0.108521 0.156751,0.09646 0.229098,0.361734 0.08441,0.265272 0.08441,0.7717 0,0.506428 -0.08441,0.7717 -0.07235,0.265272 -0.229098,0.361735 -0.156752,0.09646 -0.44614,0.09646 H 75.322436 V 90.49368 q 0,0.397907 -0.301445,0.590832 -0.301446,0.204983 -1.024914,0.204983 -0.55466,0 -0.831989,-0.156751 -0.265272,-0.144694 -0.470255,-0.482313 l -5.426016,-8.98307 h -0.04823 v 6.885011 h 1.338417 q 0.289388,0 0.446139,0.10852 0.156752,0.09646 0.229099,0.361734 0.0844,0.265272 0.0844,0.7717 0,0.506429 -0.0844,0.7717 -0.07235,0.265272 -0.229099,0.361735 -0.156751,0.09646 -0.446139,0.09646 h -4.871356 q -0.289388,0 -0.446139,-0.09646 -0.156752,-0.09646 -0.241157,-0.361735 -0.07235,-0.265271 -0.07235,-0.7717 0,-0.506428 0.07235,-0.7717 0.08441,-0.265271 0.241157,-0.361734 0.156751,-0.10852 0.446139,-0.10852 h 0.807873 v -9.368921 h -0.807873 q -0.289388,0 -0.446139,-0.09646 -0.156752,-0.09646 -0.241157,-0.361735 -0.07235,-0.265272 -0.07235,-0.7717 0,-0.506428 0.07235,-0.7717 0.08441,-0.265272 0.241157,-0.361734 0.156751,-0.108521 0.446139,-0.108521 h 3.183262 q 0.482313,0 0.675238,0.325561 l 5.003992,8.283718 h 0.04823 v -6.137427 h -1.109318 q -0.289388,0 -0.446139,-0.09646 -0.156752,-0.09646 -0.241157,-0.361735 -0.07235,-0.265272 -0.07235,-0.7717 0,-0.506428 0.07235,-0.7717 0.0844,-0.265272 0.241157,-0.361734 0.156751,-0.108521 0.446139,-0.108521 z"
         style="font-style:normal;font-variant:normal;font-weight:bold;font-stretch:normal;font-size:24.6944px;font-family:'Courier Prime';-inkscape-font-specification:'Courier Prime Bold';fill:#151515;fill-opacity:1;stroke-width:0.264583"
         id="path995" />
      <path
         d="m 84.534604,76.446328 q 1.977482,0 3.484708,0.904336 1.507227,0.892278 2.327158,2.580371 0.831989,1.676036 0.831989,3.930847 0,2.254811 -0.831989,3.942905 -0.819931,1.676036 -2.327158,2.580372 -1.507226,0.904336 -3.484708,0.904336 -1.977481,0 -3.484707,-0.904336 -1.507227,-0.904336 -2.339216,-2.580372 -0.819931,-1.688094 -0.819931,-3.942905 0,-2.254811 0.819931,-3.930847 0.831989,-1.688093 2.339216,-2.580371 1.507226,-0.904336 3.484707,-0.904336 z m 0,2.737123 q -1.676036,0 -2.544198,1.205781 -0.868163,1.205782 -0.868163,3.47265 0,2.266869 0.868163,3.484708 0.868162,1.205782 2.544198,1.205782 1.676036,0 2.544199,-1.205782 0.868162,-1.217839 0.868162,-3.484708 0,-2.266868 -0.868162,-3.47265 -0.868163,-1.205781 -2.544199,-1.205781 z"
         style="font-style:normal;font-variant:normal;font-weight:bold;font-stretch:normal;font-size:24.6944px;font-family:'Courier Prime';-inkscape-font-specification:'Courier Prime Bold';fill:#151515;fill-opacity:1;stroke-width:0.264583"
         id="path997" />
    </g>
  </g>
</svg>
